# xmcd CD database file
#
# Track frame offsets:
#	150
#	16278
#	29700
#	45184
#	60380
#	75140
#	89306
#	105262
#	121562
#	141040
#	155030
#	171472
#	183141
#	196475
#	208998
#
# Disc length: 2986 seconds
#
# Revision: 0
# Processed by: cddbd v1.5.2PL0 Copyright (c) Steve Scherf et al.
# Submitted via: CDex 1.78
#
DISCID=b70ba80f
DTITLE=Gail Russell - Love Is Like The Wind
DYEAR=2014
DGENRE=Country
TTITLE0=Love Is Like The Wind
TTITLE1=Number One's In Heaven
TTITLE2=My Fool Heart Too
TTITLE3=I Painted It Blue
TTITLE4=Did I Fall In Love
TTITLE5=Still Miss Someone
TTITLE6=Beautiful Lies
TTITLE7=The One That Waits For You
TTITLE8=Heart Of Stone
TTITLE9=I'll Be Faithful To You
TTITLE10=Cowboy Come Home
TTITLE11=I've Not Gone Off The Deep End Yet
TTITLE12=Forever With You
TTITLE13=The Green Fields Of Ireland
TTITLE14=The Way Old Friends Do
EXTD=YEAR: 2014
EXTT0=
EXTT1=
EXTT2=
EXTT3=
EXTT4=
EXTT5=
EXTT6=
EXTT7=
EXTT8=
EXTT9=
EXTT10=
EXTT11=
EXTT12=
EXTT13=
EXTT14=
PLAYORDER=
